<svg width="78" height="77" viewBox="0 0 78 77" fill="none" xmlns="http://www.w3.org/2000/svg">
<line x1="74.5" y1="44.7376" x2="74.5" y2="17.7376" stroke="#FF0000" stroke-width="5" stroke-linecap="round"/>
<line x1="55" y1="47.4272" x2="55" y2="15.6518" stroke="#FF0000" stroke-width="6"/>
<path d="M55 16.6447V14.9898L56.4615 14.6588H59.3846L65.7179 14.6588H70.5897H73.5128L74 15.9827" stroke="#FF0000" stroke-width="5" stroke-linecap="round"/>
<path d="M75 46.4342L74.4872 47.9236L73.4615 48.4201H70.3846H65.2564H55" stroke="#FF0000" stroke-width="5" stroke-linecap="round"/>
<path d="M55.1016 47.3603L52.0013 46.1519L49.0013 48.8267L45.0013 51.9474L39 59.0803L37.5 67.1048L36.0017 73.346" stroke="#FF0000" stroke-width="5"/>
<path d="M36 70.6141V71.3493C36 72.306 35.5262 73.2007 34.7348 73.7384V73.7384C34.256 74.0637 33.6905 74.2376 33.1116 74.2376H31.7187C31.0789 74.2376 30.4449 74.1148 29.8514 73.8758L29.8177 73.8623C28.9563 73.5155 28.2085 72.9356 27.6581 72.1877L27.3113 71.7166C26.7802 70.9949 26.4528 70.1437 26.3633 69.2522L26 65.6318V62.4612V58.8377V56.7219C26 56.0264 26.1451 55.3385 26.4261 54.7023L27 53.4025L27.5925 51.524C27.8593 50.6778 28.3466 49.9179 29.0041 49.3223L29.5 48.8731L30 48.4201" stroke="#FF0000" stroke-width="5" stroke-linecap="round"/>
<path d="M31 48.4201H16.2632H8.89474L6.84487 48.1094C6.25964 48.0206 5.71373 47.7608 5.27587 47.3625L4.5228 46.6774C3.5529 45.7952 3 44.5448 3 43.2337V43.2337C3 42.2881 3.47843 41.4067 4.27137 40.8914L6.4386 39.4833" stroke="#FF0000" stroke-width="5" stroke-linecap="round"/>
<path d="M6 39.4833L4.66667 37.3928L4.38389 36.5061C4.13841 35.7363 4.2138 34.9001 4.593 34.1866L5.99999 31.5395" stroke="#FF0000" stroke-width="5"/>
<path d="M6.00078 31.8861L6.02663 31.8688C7.21302 31.0755 7.80095 29.6592 7.5 28.3197V28.3197V28.3197C6.90048 26.4477 7.57738 24.359 9.19169 23.0996L10.5008 22.0784" stroke="#FF0000" stroke-width="5" stroke-linecap="round"/>
<path d="M12.0004 21.1868L12.1352 20.7058C12.3741 19.853 12.3772 18.9657 12.1443 18.1348L12 17.6203" stroke="#FF0000" stroke-width="5" stroke-linecap="round"/>
<path d="M11.9994 17.6202L13.4997 15.837L14.4999 14.9455L16 14.4997L18 14.4997L29 14.4997L35.25 14.4997L38.375 14.4997L39.9375 14.4997L41.7188 14.4997L43.6094 14.9455L45.5547 15.6142L47.5273 16.3944L49.5137 17.2303L51.5 18.0662" stroke="#FF0000" stroke-width="5" stroke-linecap="round"/>
</svg>
