<svg width="41" height="41" viewBox="0 0 41 41" fill="none" xmlns="http://www.w3.org/2000/svg">
<line x1="38.5" y1="23.5194" x2="38.5" y2="9.94987" stroke="#FF0000" stroke-width="3" stroke-linecap="round"/>
<line x1="27.7168" y1="25.1176" x2="27.7168" y2="8.66429" stroke="#FF0000" stroke-width="3"/>
<path d="M28.7031 9.17845V8.3215L29.4536 8.15012H30.9547H34.2069H36.7087L38.2097 8.15012L38.4599 8.83567" stroke="#FF0000" stroke-width="3" stroke-linecap="round"/>
<path d="M38.9727 24.6034L38.7093 25.3746L38.1826 25.6317H36.6026H33.9692H28.7024" stroke="#FF0000" stroke-width="3" stroke-linecap="round"/>
<path d="M28.7539 25.0829L27.1619 24.4572L25.6213 25.8423L23.5673 27.4581L20.4855 31.1515L19.7153 35.3066L18.9459 38.5383" stroke="#FF0000" stroke-width="3"/>
<path d="M18.9453 37.1238V37.5122C18.9453 38.003 18.7033 38.4622 18.2984 38.7396V38.7396C18.0508 38.9092 17.7577 39 17.4575 39H16.7567C16.4216 39 16.0898 38.9352 15.7793 38.8092V38.8092C15.3313 38.6273 14.9429 38.324 14.6579 37.9335L14.5688 37.8114C14.2402 37.3612 14.0378 36.8313 13.9826 36.2766L13.8102 34.5439V32.9022V31.0259V30.431C13.8102 29.7406 13.9531 29.0577 14.2301 28.4253L14.3237 28.2116L14.5258 27.5655C14.7297 26.9134 15.103 26.3271 15.6075 25.8663V25.8663L15.8642 25.6317" stroke="#FF0000" stroke-width="3" stroke-linecap="round"/>
<path d="M16.3789 25.6317H8.81134H5.02756L4.10951 25.4914C3.72131 25.432 3.35952 25.2586 3.07012 24.9932L2.7857 24.7323C2.28537 24.2734 2.00053 23.6256 2.00053 22.9467V22.9467C2.00053 22.4564 2.24757 21.9992 2.65762 21.7306L3.7663 21.0042" stroke="#FF0000" stroke-width="3" stroke-linecap="round"/>
<path d="M3.5407 21.0042L2.85601 19.9218V19.9218C2.63696 19.2292 2.70432 18.4777 3.04306 17.835L3.5407 16.8909" stroke="#FF0000" stroke-width="3"/>
<path d="M3.54073 17.0704L3.55152 17.0632C4.16302 16.6508 4.46534 15.9182 4.3106 15.2237V15.2237V15.2237C4.00232 14.2531 4.34994 13.1732 5.18115 12.5194L5.85154 11.992" stroke="#FF0000" stroke-width="3" stroke-linecap="round"/>
<path d="M6.62093 11.5303V11.5303C6.78897 10.9256 6.791 10.296 6.62683 9.70557L6.62072 9.68363" stroke="#FF0000" stroke-width="3" stroke-linecap="round"/>
<path d="M6.33877 9.68355L7.10921 8.76021L7.62286 8.29858L8.39316 8.06778L9.42019 8.06778L15.0688 8.06778L18.2783 8.06778L19.883 8.06778L20.6854 8.06778L21.6001 8.06778L22.5709 8.29862L23.5699 8.64487L24.5829 9.04884L25.6029 9.48166L27.675 9.68355" stroke="#FF0000" stroke-width="3" stroke-linecap="round"/>
</svg>
