<svg width="42" height="42" viewBox="0 0 42 42" fill="none" xmlns="http://www.w3.org/2000/svg">
<line x1="13.5322" y1="16.1849" x2="13.5322" y2="32.9966" stroke="#00BD29" stroke-width="3"/>
<path d="M38.2989 20.3878L38.9994 21.4938V21.4938C39.2235 22.2015 39.1546 22.9694 38.8081 23.6259L38.2989 24.5907" stroke="#00BD29" stroke-width="3"/>
<path d="M38.2994 24.4073L38.288 24.415C37.6627 24.8361 37.3535 25.5848 37.5118 26.2943V26.2943V26.2943C37.8271 27.2858 37.4715 28.3895 36.6214 29.0573L35.9353 29.5964" stroke="#00BD29" stroke-width="3" stroke-linecap="round"/>
<path d="M35.1497 30.0682V30.0682C34.9778 30.6861 34.9757 31.3293 35.1436 31.9324L35.15 31.9551" stroke="#00BD29" stroke-width="3" stroke-linecap="round"/>
<line x1="2.5" y1="17.6849" x2="2.5" y2="31.4966" stroke="#00BD29" stroke-width="3" stroke-linecap="round"/>
<path d="M12.5596 32.4712V33.3469L11.7917 33.522H10.256H6.92872H4.36925H2.83356L2.57761 32.8215" stroke="#00BD29" stroke-width="3" stroke-linecap="round"/>
<path d="M2.0498 16.7102L2.31922 15.9222L2.85806 15.6595H4.47457H7.16876H12.5571" stroke="#00BD29" stroke-width="3" stroke-linecap="round"/>
<path d="M12.5059 16.2203L14.1346 16.8596L15.7107 15.4444L17.8122 13.7933L20.9651 10.0195L21.7531 5.77388L22.5403 2.47174" stroke="#00BD29" stroke-width="3"/>
<path d="M22.5381 3.91713V3.5214C22.5381 3.0192 22.7859 2.54936 23.2004 2.26578V2.26578C23.4534 2.09264 23.7529 2 24.0595 2H24.7776C25.1201 2 25.4595 2.06617 25.7769 2.19489V2.19489C26.2354 2.38079 26.633 2.69091 26.9249 3.09038L27.0153 3.21403C27.3517 3.67438 27.5589 4.2163 27.6154 4.78366L27.7917 6.55317V8.23066V10.1478V10.7773C27.7917 11.4684 27.6485 12.1521 27.3709 12.7851L27.2664 13.0235L27.0598 13.683C26.851 14.3497 26.4691 14.949 25.953 15.4199V15.4199L25.6903 15.6595" stroke="#00BD29" stroke-width="3" stroke-linecap="round"/>
<path d="M25.1689 15.6595H32.9112H36.7823L37.7226 15.8031C38.1191 15.8636 38.4886 16.0406 38.7844 16.3115L39.0764 16.579C39.5879 17.0476 39.8792 17.7094 39.8792 18.4031V18.4031C39.8792 18.9039 39.6267 19.371 39.2076 19.6452L38.0727 20.3878" stroke="#00BD29" stroke-width="3" stroke-linecap="round"/>
<path d="M35.1471 31.9552L34.3589 32.8986L33.8334 33.3703L33.0453 33.6061L31.9946 33.6061L26.2155 33.6061L22.932 33.6061L21.2902 33.6061L20.4693 33.6061L19.5335 33.6061L18.5403 33.3703L17.5183 33.0165L16.4819 32.6037L15.4383 32.1615L14.3948 31.7192" stroke="#00BD29" stroke-width="3" stroke-linecap="round"/>
</svg>
