<svg width="78" height="78" viewBox="0 0 78 78" fill="none" xmlns="http://www.w3.org/2000/svg">
<line x1="23" y1="30" x2="23" y2="62" stroke="#00BD29" stroke-width="6"/>
<path d="M72 38L73.3333 40.1053L73.6212 41.0143C73.8636 41.7797 73.789 42.6102 73.4143 43.3202L72 46" stroke="#00BD29" stroke-width="5"/>
<path d="M71.9992 45.6509L71.9775 45.6656C70.7873 46.467 70.1987 47.892 70.5 49.2425V49.2425V49.2425C71.1002 51.1299 70.4233 53.2307 68.8053 54.5019L67.4992 55.5279" stroke="#00BD29" stroke-width="5" stroke-linecap="round"/>
<path d="M65.9996 56.4258L65.8607 56.9249C65.6245 57.7742 65.6216 58.6583 65.8524 59.4872L66 60.0175" stroke="#00BD29" stroke-width="5" stroke-linecap="round"/>
<line x1="3.5" y1="32.5" x2="3.5" y2="59.5" stroke="#00BD29" stroke-width="5" stroke-linecap="round"/>
<path d="M23 61V62.6667L21.5385 63H18.6154H12.2821H7.41026H4.48718L4 61.6667" stroke="#00BD29" stroke-width="5" stroke-linecap="round"/>
<path d="M3 31L3.51282 29.5L4.53846 29H7.61538H12.7436H23" stroke="#00BD29" stroke-width="5" stroke-linecap="round"/>
<path d="M22.8984 30.0673L25.9987 31.2843L28.9987 28.5905L32.9987 25.4478L39 18.2645L40.5 10.1833L41.9983 3.89791" stroke="#00BD29" stroke-width="5"/>
<path d="M42 6.64912V5.89588C42 4.93999 42.4717 4.04567 43.2606 3.50589V3.50589C43.7423 3.17633 44.3123 3 44.8959 3H46.2749C46.9189 3 47.5568 3.12441 48.1536 3.36639L48.1813 3.37762C49.0433 3.72712 49.7907 4.31015 50.3396 5.06115L50.6966 5.54975C51.2226 6.26956 51.5466 7.11692 51.635 8.00404L52 11.6667V14.8596V18.5088V20.6538C52 21.3449 51.8567 22.0286 51.5792 22.6615L51 23.9825L50.4037 25.8864C50.1393 26.7306 49.6556 27.4896 49.0021 28.0858L48.5 28.5439L48 29" stroke="#00BD29" stroke-width="5" stroke-linecap="round"/>
<path d="M47 29H61.7368H69.1053L71.1513 29.3124C71.7389 29.4021 72.2866 29.6644 72.725 30.0659L73.4719 30.7502C74.4456 31.6421 75 32.9019 75 34.2223V34.2223C75 35.1756 74.5193 36.0645 73.7217 36.5865L71.5614 38" stroke="#00BD29" stroke-width="5" stroke-linecap="round"/>
<path d="M66.0006 60.0176L64.5003 61.8135L63.5001 62.7113L62 63.1602L60 63.1602L49 63.1602L42.75 63.1602L39.625 63.1602L38.0625 63.1602L36.2812 63.1602L34.3906 62.7112L32.4453 62.0378L30.4727 61.2521L28.4863 60.4103L26.5 59.5685" stroke="#00BD29" stroke-width="5" stroke-linecap="round"/>
</svg>
